<svg xmlns="http://www.w3.org/2000/svg" width="32" height="32" viewBox="474.22 -62.02 676.65 707.54">
<rect x="474.22" y="-62.02" width="676.65" height="707.54" rx="90" fill="#16191D"/>
<g transform="translate(0.000000,968.000000) scale(0.100000,-0.100000)" fill="#F2F3F5" stroke="none">
<path d="M5855 9372 c-57 -27 -80 -85 -53 -135 6 -12 55 -68 109 -125 335
-352 640 -921 773 -1445 65 -252 90 -453 89 -707 0 -209 -18 -368 -63 -561
-17 -70 -30 -130 -29 -135 1 -17 22 42 45 131 45 167 66 319 71 526 10 370
-41 679 -185 1109 -3 10 -2 12 6 5 13 -12 93 -250 121 -360 58 -231 97 -583
86 -790 -18 -361 -85 -644 -215 -910 -98 -202 -264 -425 -315 -425 -16 0 -13
6 17 38 81 85 197 261 277 420 43 87 86 200 79 208 -3 2 -17 -30 -32 -73 -68
-193 -215 -423 -366 -573 -115 -113 -129 -140 -105 -197 20 -46 56 -66 120
-64 111 2 186 27 394 130 684 338 1510 549 2066 528 187 -7 307 -24 500 -71
109 -27 143 -32 152 -23 37 36 42 647 8 867 -87 553 -360 1105 -745 1504 -473
489 -1075 810 -1915 1020 -218 54 -556 108 -755 121 -80 5 -101 3 -135 -13z
m31 -63 c15 -17 16 -22 4 -29 -15 -9 -44 2 -56 21 -3 6 0 15 7 20 20 12 24 11
45 -12z m555 1 c498 -88 981 -247 1335 -438 277 -149 411 -235 583 -372 120
-96 360 -333 411 -405 25 -36 6 -20 -65 55 -200 212 -326 322 -533 467 -443
311 -1027 539 -1732 678 -74 15 -137 29 -139 31 -8 8 27 4 140 -16z m-179 -6
c299 -41 695 -139 988 -244 128 -46 303 -120 297 -126 -2 -3 -77 23 -165 56
-195 72 -351 120 -537 165 -168 41 -532 108 -705 131 -69 9 -134 20 -145 24
-35 15 147 11 267 -6z m-245 -210 c94 -115 237 -322 327 -475 79 -132 159
-295 154 -310 -2 -6 -30 41 -62 105 -61 122 -163 295 -218 371 -93 128 -212
281 -252 326 -44 48 -58 79 -37 79 6 0 45 -43 88 -96z m1740 -271 c382 -175
747 -458 994 -773 65 -82 121 -159 142 -195 3 -7 -12 -11 -40 -12 -56 -2 -111
26 -261 133 -57 41 -113 79 -125 85 -12 7 -47 35 -78 63 -96 87 -172 151 -219
183 -25 17 -54 41 -65 53 -11 13 -44 38 -73 57 -30 19 -82 58 -115 86 -34 29
-89 72 -122 96 -33 24 -89 73 -125 110 -36 36 -85 82 -108 102 -46 39 -50 50
-26 74 23 23 55 14 221 -62z m-1193 -649 c3 -8 2 -12 -4 -9 -6 3 -10 10 -10
16 0 14 7 11 14 -7z m2306 -210 c18 -26 29 -45 24 -42 -5 4 -25 28 -44 54 -18
26 -29 45 -24 42 5 -4 25 -28 44 -54z m531 -1997 c-19 -19 -28 50 -20 148 4
55 12 163 16 240 8 137 8 135 11 -119 1 -143 -2 -264 -7 -269z m-596 53 c33
-5 -17 -7 -145 -7 -131 0 -171 3 -120 7 108 9 208 9 265 0z m-506 -24 c-2 -2
-33 -6 -69 -9 -41 -4 -56 -3 -40 3 25 8 117 14 109 6z m-304 -57 c-88 -22
-223 -57 -300 -79 -78 -22 -150 -40 -160 -40 -11 0 -65 -16 -120 -36 -55 -19
-133 -46 -172 -59 -40 -13 -101 -37 -135 -53 -35 -16 -83 -36 -108 -45 -50
-17 -308 -128 -354 -152 -16 -9 -31 -14 -33 -11 -7 6 173 96 301 151 339 145
781 284 1081 340 179 34 179 28 0 -16z m1375 22 c0 -26 -41 -34 -106 -21 -30
6 -54 14 -54 17 0 5 81 -4 112 -13 10 -3 19 3 23 16 8 25 25 26 25 1z m-3120
-474 c0 -19 -21 -37 -42 -37 -21 0 -24 20 -6 38 16 16 48 15 48 -1z m320 -47
c-8 -5 -19 -10 -25 -10 -5 0 -3 5 5 10 8 5 20 10 25 10 6 0 3 -5 -5 -10z m-40
-14 c0 -5 -79 -51 -102 -59 -10 -4 -18 -3 -18 2 0 4 26 20 58 34 62 29 62 29
62 23z m-250 -60 c0 -2 -7 -6 -15 -10 -8 -3 -15 -1 -15 4 0 6 7 10 15 10 8 0
15 -2 15 -4z"/>
<path d="M10186 6668 c-8 -13 -28 -74 -45 -136 -86 -313 -155 -411 -451 -647
-216 -172 -500 -351 -765 -479 -689 -336 -1792 -558 -2888 -583 -329 -7 -345
-10 -380 -70 -16 -28 -16 -35 -4 -65 19 -45 28 -51 142 -93 55 -20 152 -56
215 -80 235 -88 541 -185 730 -230 63 -16 122 -30 130 -33 32 -10 -40 -19
-205 -26 -301 -12 -901 -59 -913 -71 -3 -3 -2 -8 2 -12 4 -5 1055 -8 2336 -8
1281 0 2332 3 2336 8 4 4 5 9 2 12 -24 24 -792 67 -1460 81 -170 4 -308 11
-308 15 0 5 19 13 43 20 69 18 255 97 357 151 207 110 437 277 603 437 90 86
303 344 357 430 118 190 280 567 280 651 0 10 21 61 47 112 40 80 63 109 155
201 86 86 108 114 108 136 0 36 -112 263 -117 239 -5 -19 -18 -24 -27 -9 -3 5
-31 12 -62 16 -32 4 -67 11 -78 15 -18 8 -17 9 9 9 17 0 51 -4 78 -8 81 -13
52 5 -35 23 -120 23 -174 22 -192 -6z m74 2 c0 -5 -2 -10 -4 -10 -3 0 -8 5
-11 10 -3 6 -1 10 4 10 6 0 11 -4 11 -10z m-20 -44 c0 -61 -75 -225 -94 -205
-2 2 9 42 25 89 16 47 29 97 29 111 0 14 3 28 6 32 12 11 34 -6 34 -27z m145
-6 c72 -11 83 -15 72 -26 -9 -10 -178 23 -191 37 -8 8 -3 10 19 5 17 -3 61
-10 100 -16z m-215 -224 c0 -2 -9 -32 -20 -66 -23 -71 -66 -151 -113 -209 -18
-21 -52 -65 -77 -96 -166 -213 -648 -542 -1055 -721 -146 -63 -462 -177 -479
-171 -6 2 7 10 29 17 107 34 405 159 527 221 241 121 482 273 708 448 86 66
300 268 300 282 0 7 81 141 120 199 9 14 20 42 24 63 4 22 13 37 21 37 8 0 15
-2 15 -4z m230 -174 c0 -5 -9 -17 -20 -27 -22 -20 -26 -14 -10 16 11 19 30 26
30 11z m-308 -675 c-33 -68 -65 -127 -71 -131 -14 -9 -10 -1 63 147 32 64 61
115 64 113 2 -3 -23 -61 -56 -129z m-222 -361 c0 -2 -8 -10 -17 -17 -16 -13
-17 -12 -4 4 13 16 21 21 21 13z m-2202 -211 c-17 -17 -580 -111 -617 -102 -9
2 25 9 74 17 50 7 185 30 300 50 215 38 252 44 243 35z m159 -1 c-3 -3 -12 -4
-19 -1 -8 3 -5 6 6 6 11 1 17 -2 13 -5z m-62 -15 c-92 -29 -516 -105 -765
-138 -457 -60 -1240 -92 -1240 -50 0 5 78 9 178 9 395 1 824 27 1072 65 52 8
165 24 250 35 85 12 229 36 320 54 164 34 250 45 185 25z m-762 -96 c-7 -2
-21 -2 -30 0 -10 3 -4 5 12 5 17 0 24 -2 18 -5z m-103 -13 c-30 -5 -71 -8 -90
-8 -31 1 -30 2 10 8 25 4 65 7 90 7 44 0 44 0 -10 -7z m-137 -17 c-7 -2 -21
-2 -30 0 -10 3 -4 5 12 5 17 0 24 -2 18 -5z m-375 -30 c-10 -2 -28 -2 -40 0
-13 2 -5 4 17 4 22 1 32 -1 23 -4z m-670 -45 c20 -20 14 -30 -15 -26 -32 4
-46 38 -16 38 11 0 24 -5 31 -12z m1272 -528 c19 -6 9 -8 -35 -8 -42 -1 -54 2
-40 8 24 10 42 10 75 0z m1640 2 c0 -5 172 -12 383 -15 388 -7 1104 -34 1122
-43 6 -2 -93 -2 -220 1 -755 19 -1041 24 -1302 25 -166 0 -294 4 -298 9 -3 5
23 12 57 15 35 3 77 8 93 9 63 8 165 7 165 -1z m-1957 -39 c-29 -2 -77 -2
-105 0 -29 2 -6 3 52 3 58 0 81 -1 53 -3z m-260 -10 c-24 -2 -62 -2 -85 0 -24
2 -5 4 42 4 47 0 66 -2 43 -4z m3800 -20 c-7 -2 -19 -2 -25 0 -7 3 -2 5 12 5
14 0 19 -2 13 -5z"/>
</g>
</svg>
